Coordinates
version=1
nRows=8
nColumns=42
inDegrees=yes

Units are S.I. units (second, meters, Newtons, ...)
If the header above contains a line with 'inDegrees', this indicates whether rotational values are in degrees (yes) or radians (no).

endheader
time	pelvis_tilt	pelvis_list	pelvis_rotation	pelvis_tx	pelvis_ty	pelvis_tz	hip_flexion_r	hip_adduction_r	hip_rotation_r	knee_angle_r	knee_adduction_r	knee_angle_r_beta	ankle_angle_r	subtalar_angle_r	mtp_angle_r	hip_flexion_l	hip_adduction_l	hip_rotation_l	knee_angle_l	knee_adduction_l	knee_angle_l_beta	ankle_angle_l	subtalar_angle_l	mtp_angle_l	lumbar_extension	lumbar_bending	lumbar_rotation	arm_flex_r	arm_add_r	arm_rot_r	elbow_flex_r	pro_sup_r	wrist_flex_r	wrist_dev_r	arm_flex_l	arm_add_l	arm_rot_l	elbow_flex_l	pro_sup_l	wrist_flex_l	wrist_dev_l
      2.02000000	     13.82267895	      0.19526818	      5.53159104	      0.38486354	      0.91167619	     -0.25127074	    -23.82770656	      9.07396248	    -36.95304985	     13.24220033	     -6.64561081	      0.23112000	     33.43391192	     33.83348611	     -7.51607537	     19.05385280	      3.07531061	    -32.22360855	     25.25229521	    -13.31633652	      0.44073570	      9.84780933	     31.53315656	     -7.51607537	    -43.63947263	     -0.42570815	     -0.32352182	      5.96337516	    -10.17548843	      8.40404333	     38.05377697	     90.00000001	      0.00000000	      0.00000000	     -6.17054023	    -10.12850019	     14.53788312	     45.56347668	     90.00000001	      0.00000000	      0.00000000
      2.03000000	     13.88140942	      0.34637014	      5.42520707	      0.39232935	      0.91169679	     -0.25180211	    -24.16432722	      8.94373987	    -36.66693250	     13.62243842	     -7.04905505	      0.23775640	     33.30793004	     33.70897570	     -7.51595069	     18.77490429	      3.35191218	    -31.57359191	     25.77771098	    -13.49441998	      0.44990593	      9.66177427	     30.90233651	     -7.51595069	    -43.64697079	     -0.84781394	     -0.36431659	      5.68449757	    -10.01710166	      8.42507652	     37.93954815	     90.00000001	      0.00000000	      0.00000000	     -6.20859646	    -10.23144134	     14.57474985	     45.46548772	     90.00000001	      0.00000000	      0.00000000
      2.04000000	     13.80967986	      0.59553357	      5.40231740	      0.39940818	      0.91205342	     -0.25254250	    -24.21933598	      8.51311377	    -36.91986843	     14.36330457	     -7.31438564	      0.25068696	     33.19986083	     33.71483238	     -7.51511732	     18.29674866	      4.22585215	    -27.99864103	     26.14467247	    -12.75808740	      0.45631062	      8.65564005	     24.09457749	     -7.51511732	    -43.57023188	     -1.30095929	     -0.55846415	      5.68418826	     -9.69996498	      8.41307387	     37.15141710	     90.00000001	      0.00000000	      0.00000000	     -5.99101408	    -10.42493343	     15.24999538	     44.78795306	     90.00000001	      0.00000000	      0.00000000
      2.05000000	     13.87760392	      0.77403917	      5.32072662	      0.40690280	      0.91262581	     -0.25318890	    -24.58799541	      8.34866025	    -36.70516343	     14.65133222	     -7.69547792	      0.25571399	     33.09306339	     33.73006475	     -7.51508952	     17.94607981	      4.44790358	    -27.72203912	     26.61872351	    -12.90431349	      0.46458437	      8.57463117	     24.03653229	     -7.51508952	    -43.58194484	     -1.71676527	     -0.60822956	      5.34833365	     -9.56650881	      8.44317743	     37.04072043	     90.00000001	      0.00000000	      0.00000000	     -6.07765197	    -10.49432218	     15.24454465	     44.70728063	     90.00000001	      0.00000000	      0.00000000
      2.06000000	     13.95455201	      0.96488559	      5.29383145	      0.41425873	      0.91347918	     -0.25387694	    -24.92092989	      8.15904619	    -36.47910234	     15.04601627	     -8.03462159	      0.26260252	     32.89176042	     33.71418775	     -7.51506080	     17.56557966	      4.64395910	    -27.43809302	     27.12124658	    -12.93619662	      0.47335505	      8.50839834	     23.87900266	     -7.51506080	    -43.62358573	     -2.12058300	     -0.73011006	      5.06479275	     -9.39807693	      8.48800037	     36.93431701	     90.00000001	      0.00000000	      0.00000000	     -6.05789534	    -10.62364360	     15.22875473	     44.61623266	     90.00000001	      0.00000000	      0.00000000
      2.07000000	     13.72366033	      1.13669751	      5.31815868	      0.42093926	      0.91432901	     -0.25479026	    -24.61015851	      7.64936236	    -36.50861163	     16.23786379	     -8.13051797	      0.28340419	     31.83217842	     32.75237152	     -7.51422838	     17.31403092	      5.14335900	    -24.88317986	     27.56810317	    -12.10898640	      0.48115417	      8.03876244	     18.73345417	     -7.51422838	    -43.46228093	     -2.48018092	     -0.92040215	      5.18779450	     -9.24538217	      8.78020734	     36.34652917	     90.00000001	      0.00000000	      0.00000000	     -5.72046788	    -10.73792250	     15.52330598	     43.81510140	     90.00000001	      0.00000000	      0.00000000
      2.08000000	     13.71097723	      1.26744239	      5.38956637	      0.42812530	      0.91546867	     -0.25567459	    -24.81257174	      7.55523758	    -36.26212971	     16.59500014	     -8.48908473	      0.28963739	     31.63314195	     32.76823853	     -7.51419799	     16.96345735	      5.28302866	    -24.77445331	     27.88411444	    -12.15309872	      0.48666961	      8.08686330	     18.74657625	     -7.51419799	    -43.44983763	     -2.76993819	     -1.03616322	      4.87413547	     -9.07838346	      8.82466445	     36.26227484	     90.00000001	      0.00000000	      0.00000000	     -5.71872155	    -10.82936910	     15.50178122	     43.77386786	     90.00000001	      0.00000000	      0.00000000
      2.09000000	     13.57373924	      1.36798639	      5.36884829	      0.43501842	      0.91660758	     -0.25663489	    -24.60467858	      7.11920239	    -36.22829843	     17.71829625	     -8.64914121	      0.30924261	     30.41647794	     32.34009972	     -7.51400230	     16.73976814	      5.34152999	    -24.71053804	     28.22533908	    -12.04010944	      0.49262510	      8.68381038	     18.64709767	     -7.51400230	    -43.33711631	     -3.05167150	     -1.11564600	      4.76199839	     -8.99579273	      8.96066224	     36.17553337	     90.00000001	      0.00000000	      0.00000000	     -5.63299091	    -10.92488998	     15.48968110	     43.64825777	     90.00000001	      0.00000000	      0.00000000
